<mxfile host="app.diagrams.net" modified="2024-07-24T01:16:02.071Z" agent="Mozilla/5.0 (Windows NT 10.0; Win64; x64) AppleWebKit/537.36 (KHTML, like Gecko) Chrome/126.0.0.0 Safari/537.36 Edg/126.0.0.0" etag="dpP3GjLBGXrdQpCoHpWc" version="24.7.3" type="device">
  <diagram name="第 1 页" id="PuSfh-mhgeL1hnkatdvF">
    <mxGraphModel dx="2548" dy="2042" grid="1" gridSize="10" guides="1" tooltips="1" connect="1" arrows="1" fold="1" page="1" pageScale="1" pageWidth="1654" pageHeight="1169" math="0" shadow="0">
      <root>
        <mxCell id="0" />
        <mxCell id="1" parent="0" />
        <mxCell id="dte3j8Q3mIG_xeLAcrD5-1" value="" style="rounded=0;whiteSpace=wrap;html=1;" parent="1" vertex="1">
          <mxGeometry x="390" y="120" width="610" height="370" as="geometry" />
        </mxCell>
        <mxCell id="dte3j8Q3mIG_xeLAcrD5-2" value="Node" style="text;html=1;align=center;verticalAlign=middle;whiteSpace=wrap;rounded=0;" parent="1" vertex="1">
          <mxGeometry x="390" y="120" width="60" height="30" as="geometry" />
        </mxCell>
        <mxCell id="dte3j8Q3mIG_xeLAcrD5-3" value="" style="rounded=0;whiteSpace=wrap;html=1;" parent="1" vertex="1">
          <mxGeometry x="430" y="240" width="560" height="220" as="geometry" />
        </mxCell>
        <mxCell id="dte3j8Q3mIG_xeLAcrD5-4" value="docker" style="text;html=1;align=center;verticalAlign=middle;whiteSpace=wrap;rounded=0;" parent="1" vertex="1">
          <mxGeometry x="430" y="240" width="60" height="30" as="geometry" />
        </mxCell>
        <mxCell id="dte3j8Q3mIG_xeLAcrD5-5" value="" style="rounded=0;whiteSpace=wrap;html=1;" parent="1" vertex="1">
          <mxGeometry x="450" y="300" width="150" height="120" as="geometry" />
        </mxCell>
        <mxCell id="dte3j8Q3mIG_xeLAcrD5-6" value="Pod" style="text;html=1;align=center;verticalAlign=middle;whiteSpace=wrap;rounded=0;" parent="1" vertex="1">
          <mxGeometry x="450" y="300" width="60" height="30" as="geometry" />
        </mxCell>
        <mxCell id="dte3j8Q3mIG_xeLAcrD5-7" value="CAdvisor" style="rounded=0;whiteSpace=wrap;html=1;" parent="1" vertex="1">
          <mxGeometry x="480" y="340" width="90" height="40" as="geometry" />
        </mxCell>
        <mxCell id="dte3j8Q3mIG_xeLAcrD5-8" value="CAdvisor" style="rounded=0;whiteSpace=wrap;html=1;" parent="1" vertex="1">
          <mxGeometry x="490" y="350" width="90" height="40" as="geometry" />
        </mxCell>
        <mxCell id="dte3j8Q3mIG_xeLAcrD5-9" value="CAdvisor" style="rounded=0;whiteSpace=wrap;html=1;" parent="1" vertex="1">
          <mxGeometry x="500" y="360" width="90" height="40" as="geometry" />
        </mxCell>
        <mxCell id="dte3j8Q3mIG_xeLAcrD5-10" value="" style="rounded=0;whiteSpace=wrap;html=1;" parent="1" vertex="1">
          <mxGeometry x="625" y="300" width="150" height="120" as="geometry" />
        </mxCell>
        <mxCell id="dte3j8Q3mIG_xeLAcrD5-11" value="container" style="rounded=0;whiteSpace=wrap;html=1;" parent="1" vertex="1">
          <mxGeometry x="650" y="350" width="90" height="40" as="geometry" />
        </mxCell>
        <mxCell id="dte3j8Q3mIG_xeLAcrD5-12" value="container" style="rounded=0;whiteSpace=wrap;html=1;" parent="1" vertex="1">
          <mxGeometry x="660" y="360" width="90" height="40" as="geometry" />
        </mxCell>
        <mxCell id="dte3j8Q3mIG_xeLAcrD5-13" value="container" style="rounded=0;whiteSpace=wrap;html=1;" parent="1" vertex="1">
          <mxGeometry x="670" y="370" width="90" height="40" as="geometry" />
        </mxCell>
        <mxCell id="dte3j8Q3mIG_xeLAcrD5-15" value="Pod" style="text;html=1;align=center;verticalAlign=middle;whiteSpace=wrap;rounded=0;" parent="1" vertex="1">
          <mxGeometry x="625" y="300" width="60" height="30" as="geometry" />
        </mxCell>
        <mxCell id="dte3j8Q3mIG_xeLAcrD5-16" value="&lt;font style=&quot;font-size: 31px;&quot;&gt;...&lt;/font&gt;" style="text;html=1;align=center;verticalAlign=middle;whiteSpace=wrap;rounded=0;" parent="1" vertex="1">
          <mxGeometry x="780" y="350" width="60" height="30" as="geometry" />
        </mxCell>
        <mxCell id="dte3j8Q3mIG_xeLAcrD5-19" value="" style="rounded=0;whiteSpace=wrap;html=1;" parent="1" vertex="1">
          <mxGeometry x="827" y="300" width="150" height="120" as="geometry" />
        </mxCell>
        <mxCell id="dte3j8Q3mIG_xeLAcrD5-20" value="container" style="rounded=0;whiteSpace=wrap;html=1;" parent="1" vertex="1">
          <mxGeometry x="852" y="350" width="90" height="40" as="geometry" />
        </mxCell>
        <mxCell id="dte3j8Q3mIG_xeLAcrD5-21" value="container" style="rounded=0;whiteSpace=wrap;html=1;" parent="1" vertex="1">
          <mxGeometry x="862" y="360" width="90" height="40" as="geometry" />
        </mxCell>
        <mxCell id="dte3j8Q3mIG_xeLAcrD5-22" value="Pod" style="text;html=1;align=center;verticalAlign=middle;whiteSpace=wrap;rounded=0;" parent="1" vertex="1">
          <mxGeometry x="827" y="300" width="60" height="30" as="geometry" />
        </mxCell>
        <mxCell id="dte3j8Q3mIG_xeLAcrD5-23" value="kubelet" style="rounded=0;whiteSpace=wrap;html=1;" parent="1" vertex="1">
          <mxGeometry x="470" y="150" width="90" height="40" as="geometry" />
        </mxCell>
        <mxCell id="dte3j8Q3mIG_xeLAcrD5-24" value="Proxy" style="rounded=0;whiteSpace=wrap;html=1;" parent="1" vertex="1">
          <mxGeometry x="731" y="150" width="90" height="40" as="geometry" />
        </mxCell>
        <mxCell id="dte3j8Q3mIG_xeLAcrD5-25" value="" style="rounded=0;whiteSpace=wrap;html=1;" parent="1" vertex="1">
          <mxGeometry x="-250" y="135" width="540" height="355" as="geometry" />
        </mxCell>
        <mxCell id="dte3j8Q3mIG_xeLAcrD5-26" value="" style="rounded=0;whiteSpace=wrap;html=1;" parent="1" vertex="1">
          <mxGeometry x="-210" y="190" width="340" height="160" as="geometry" />
        </mxCell>
        <mxCell id="dte3j8Q3mIG_xeLAcrD5-27" value="APIs" style="text;html=1;align=center;verticalAlign=middle;whiteSpace=wrap;rounded=0;" parent="1" vertex="1">
          <mxGeometry x="-210" y="190" width="60" height="30" as="geometry" />
        </mxCell>
        <mxCell id="dte3j8Q3mIG_xeLAcrD5-41" style="edgeStyle=orthogonalEdgeStyle;rounded=0;orthogonalLoop=1;jettySize=auto;html=1;exitX=0.5;exitY=0;exitDx=0;exitDy=0;" parent="1" source="dte3j8Q3mIG_xeLAcrD5-28" target="dte3j8Q3mIG_xeLAcrD5-32" edge="1">
          <mxGeometry relative="1" as="geometry" />
        </mxCell>
        <mxCell id="dte3j8Q3mIG_xeLAcrD5-28" value="controller manager" style="rounded=0;whiteSpace=wrap;html=1;" parent="1" vertex="1">
          <mxGeometry x="-40" y="370" width="120" height="60" as="geometry" />
        </mxCell>
        <mxCell id="dte3j8Q3mIG_xeLAcrD5-39" style="edgeStyle=orthogonalEdgeStyle;rounded=0;orthogonalLoop=1;jettySize=auto;html=1;exitX=0.5;exitY=0;exitDx=0;exitDy=0;entryX=0.5;entryY=1;entryDx=0;entryDy=0;" parent="1" source="dte3j8Q3mIG_xeLAcrD5-29" target="dte3j8Q3mIG_xeLAcrD5-31" edge="1">
          <mxGeometry relative="1" as="geometry" />
        </mxCell>
        <mxCell id="dte3j8Q3mIG_xeLAcrD5-29" value="Scheduler" style="rounded=0;whiteSpace=wrap;html=1;" parent="1" vertex="1">
          <mxGeometry x="-190" y="370" width="90" height="40" as="geometry" />
        </mxCell>
        <mxCell id="dte3j8Q3mIG_xeLAcrD5-30" value="Scheduler" style="rounded=0;whiteSpace=wrap;html=1;" parent="1" vertex="1">
          <mxGeometry x="-180" y="380" width="90" height="40" as="geometry" />
        </mxCell>
        <mxCell id="dte3j8Q3mIG_xeLAcrD5-45" style="rounded=0;orthogonalLoop=1;jettySize=auto;html=1;exitX=1;exitY=0.5;exitDx=0;exitDy=0;entryX=0;entryY=0.25;entryDx=0;entryDy=0;" parent="1" source="dte3j8Q3mIG_xeLAcrD5-31" target="dte3j8Q3mIG_xeLAcrD5-32" edge="1">
          <mxGeometry relative="1" as="geometry" />
        </mxCell>
        <mxCell id="dte3j8Q3mIG_xeLAcrD5-31" value="scheduling&lt;div&gt;actuator&lt;/div&gt;" style="rounded=0;whiteSpace=wrap;html=1;" parent="1" vertex="1">
          <mxGeometry x="-190" y="260" width="90" height="40" as="geometry" />
        </mxCell>
        <mxCell id="dte3j8Q3mIG_xeLAcrD5-42" style="rounded=0;orthogonalLoop=1;jettySize=auto;html=1;exitX=1;exitY=1;exitDx=0;exitDy=0;entryX=0.5;entryY=0;entryDx=0;entryDy=0;startArrow=classic;startFill=1;" parent="1" source="dte3j8Q3mIG_xeLAcrD5-32" target="dte3j8Q3mIG_xeLAcrD5-34" edge="1">
          <mxGeometry relative="1" as="geometry" />
        </mxCell>
        <mxCell id="dte3j8Q3mIG_xeLAcrD5-32" value="REST&lt;div&gt;(pods，services，&lt;/div&gt;&lt;div&gt;rep. controllers)&lt;/div&gt;" style="rounded=0;whiteSpace=wrap;html=1;" parent="1" vertex="1">
          <mxGeometry x="-40" y="260" width="120" height="60" as="geometry" />
        </mxCell>
        <mxCell id="dte3j8Q3mIG_xeLAcrD5-33" value="authentication&lt;div&gt;authorization&lt;/div&gt;" style="rounded=0;whiteSpace=wrap;html=1;" parent="1" vertex="1">
          <mxGeometry x="-30" y="160" width="120" height="60" as="geometry" />
        </mxCell>
        <mxCell id="dte3j8Q3mIG_xeLAcrD5-34" value="Distributed&lt;div&gt;Watchable&lt;/div&gt;&lt;div&gt;Storage&lt;/div&gt;&lt;div&gt;&lt;br&gt;&lt;/div&gt;&lt;div&gt;(implemented via etcd)&lt;/div&gt;" style="rounded=0;whiteSpace=wrap;html=1;" parent="1" vertex="1">
          <mxGeometry x="110" y="440" width="160" height="110" as="geometry" />
        </mxCell>
        <mxCell id="dte3j8Q3mIG_xeLAcrD5-37" style="edgeStyle=orthogonalEdgeStyle;rounded=0;orthogonalLoop=1;jettySize=auto;html=1;exitX=0.5;exitY=1;exitDx=0;exitDy=0;entryX=0.5;entryY=0;entryDx=0;entryDy=0;" parent="1" source="dte3j8Q3mIG_xeLAcrD5-35" target="dte3j8Q3mIG_xeLAcrD5-33" edge="1">
          <mxGeometry relative="1" as="geometry" />
        </mxCell>
        <mxCell id="dte3j8Q3mIG_xeLAcrD5-35" value="kubectl (user commands)" style="rounded=0;whiteSpace=wrap;html=1;" parent="1" vertex="1">
          <mxGeometry x="-50" y="-20" width="160" height="30" as="geometry" />
        </mxCell>
        <mxCell id="dte3j8Q3mIG_xeLAcrD5-40" style="rounded=0;orthogonalLoop=1;jettySize=auto;html=1;exitX=0.5;exitY=0;exitDx=0;exitDy=0;entryX=0.167;entryY=0.833;entryDx=0;entryDy=0;entryPerimeter=0;" parent="1" source="dte3j8Q3mIG_xeLAcrD5-29" target="dte3j8Q3mIG_xeLAcrD5-32" edge="1">
          <mxGeometry relative="1" as="geometry" />
        </mxCell>
        <mxCell id="dte3j8Q3mIG_xeLAcrD5-43" style="edgeStyle=orthogonalEdgeStyle;rounded=0;orthogonalLoop=1;jettySize=auto;html=1;exitX=0.5;exitY=1;exitDx=0;exitDy=0;entryX=0.587;entryY=0.043;entryDx=0;entryDy=0;entryPerimeter=0;" parent="1" source="dte3j8Q3mIG_xeLAcrD5-33" target="dte3j8Q3mIG_xeLAcrD5-32" edge="1">
          <mxGeometry relative="1" as="geometry" />
        </mxCell>
        <mxCell id="dte3j8Q3mIG_xeLAcrD5-46" style="rounded=0;orthogonalLoop=1;jettySize=auto;html=1;exitX=0;exitY=0.5;exitDx=0;exitDy=0;entryX=1;entryY=0.5;entryDx=0;entryDy=0;" parent="1" source="dte3j8Q3mIG_xeLAcrD5-23" target="dte3j8Q3mIG_xeLAcrD5-32" edge="1">
          <mxGeometry relative="1" as="geometry" />
        </mxCell>
        <mxCell id="dte3j8Q3mIG_xeLAcrD5-50" style="edgeStyle=orthogonalEdgeStyle;rounded=0;orthogonalLoop=1;jettySize=auto;html=1;exitX=0.5;exitY=1;exitDx=0;exitDy=0;entryX=0.5;entryY=0;entryDx=0;entryDy=0;" parent="1" source="dte3j8Q3mIG_xeLAcrD5-47" target="dte3j8Q3mIG_xeLAcrD5-24" edge="1">
          <mxGeometry relative="1" as="geometry" />
        </mxCell>
        <mxCell id="dte3j8Q3mIG_xeLAcrD5-47" value="Firewall" style="rounded=0;whiteSpace=wrap;html=1;" parent="1" vertex="1">
          <mxGeometry x="716" y="-90" width="120" height="60" as="geometry" />
        </mxCell>
        <mxCell id="dte3j8Q3mIG_xeLAcrD5-49" style="edgeStyle=orthogonalEdgeStyle;rounded=0;orthogonalLoop=1;jettySize=auto;html=1;exitX=0.55;exitY=0.95;exitDx=0;exitDy=0;exitPerimeter=0;" parent="1" source="dte3j8Q3mIG_xeLAcrD5-48" target="dte3j8Q3mIG_xeLAcrD5-47" edge="1">
          <mxGeometry relative="1" as="geometry" />
        </mxCell>
        <mxCell id="dte3j8Q3mIG_xeLAcrD5-48" value="Internet" style="ellipse;shape=cloud;whiteSpace=wrap;html=1;" parent="1" vertex="1">
          <mxGeometry x="710" y="-240" width="120" height="80" as="geometry" />
        </mxCell>
      </root>
    </mxGraphModel>
  </diagram>
</mxfile>
